<svg viewBox="0 0 60 48" fill="none" xmlns="http://www.w3.org/2000/svg">
  <!-- Cloud -->
  <path d="M48.5 38H14c-5.5 0-10-4.5-10-10 0-4.8 3.4-8.8 8-9.8C12.2 12.5 17.5 8 24 8c5.2 0 9.7 3 12 7.3C37.3 14.5 39 14 41 14c5.5 0 10 4.5 10 10 0 .7-.1 1.3-.2 2C54.3 27.5 57 31 57 35c0 1-.2 2-.5 3" stroke="#fff" stroke-width="2.5" stroke-linecap="round" stroke-linejoin="round" fill="none"/>
  <!-- Radar circles -->
  <circle cx="33" cy="26" r="12" stroke="rgba(255,255,255,.5)" stroke-width="1.5" fill="none"/>
  <circle cx="33" cy="26" r="8" stroke="rgba(255,255,255,.65)" stroke-width="1.5" fill="none"/>
  <circle cx="33" cy="26" r="4" stroke="rgba(255,255,255,.8)" stroke-width="1.5" fill="none"/>
  <!-- Radar cross -->
  <line x1="33" y1="14" x2="33" y2="38" stroke="rgba(255,255,255,.3)" stroke-width="1"/>
  <line x1="21" y1="26" x2="45" y2="26" stroke="rgba(255,255,255,.3)" stroke-width="1"/>
  <!-- Radar sweep needle -->
  <line x1="33" y1="26" x2="42" y2="18" stroke="#fff" stroke-width="2" stroke-linecap="round"/>
  <!-- Center dot -->
  <circle cx="33" cy="26" r="1.8" fill="#4ade80"/>
</svg>
